<?xml version="1.0" standalone="no"?>
<!DOCTYPE svg PUBLIC "-//W3C//DTD SVG 20010904//EN"
 "http://www.w3.org/TR/2001/REC-SVG-20010904/DTD/svg10.dtd">
<svg version="1.0" xmlns="http://www.w3.org/2000/svg"
 width="258.000000pt" height="379.000000pt" viewBox="0 0 258.000000 379.000000"
 preserveAspectRatio="xMidYMid meet">

<g transform="translate(0.000000,379.000000) scale(0.100000,-0.100000)"
fill="#000000" stroke="none">
<path d="M0 1895 l0 -1895 1290 0 1290 0 0 1895 0 1895 -1290 0 -1290 0 0
-1895z m1283 1237 c-27 -19 -458 -262 -466 -262 -4 0 -7 123 -7 274 l0 274 68
43 c37 24 146 89 242 146 l175 104 3 -283 c2 -261 1 -284 -15 -296z m877 89
c107 -60 222 -124 255 -143 l60 -34 3 -678 c2 -541 0 -677 -10 -673 -7 3 -116
65 -243 140 l-230 134 -3 393 c-2 388 -2 392 -24 409 -21 18 -22 25 -24 290
-2 203 1 271 9 271 7 0 100 -49 207 -109z m-613 -522 l173 -94 -1 -245 0 -245
-201 -114 c-111 -63 -207 -114 -213 -114 -6 0 -99 52 -208 117 l-197 117 0
233 c0 209 2 234 18 249 9 8 100 65 201 125 l184 111 36 -23 c20 -13 114 -66
208 -117z m-626 -904 l287 -168 0 -273 c0 -151 -3 -274 -7 -274 -11 0 -160 81
-461 252 -493 280 -600 342 -598 350 4 9 481 287 488 284 3 -2 134 -78 291
-171z m-121 -1379 c0 -153 -1 -165 -23 -197 -51 -77 -200 -106 -297 -56 -51
25 -90 77 -90 118 0 29 0 29 63 29 59 0 63 -2 79 -31 16 -28 21 -30 65 -27 66
4 73 21 73 184 0 72 3 134 7 137 3 4 33 7 65 7 l58 0 0 -164z m260 142 c5 -13
23 -72 41 -133 17 -60 34 -114 38 -118 4 -4 22 48 40 115 18 68 37 131 42 141
7 13 23 17 64 17 l54 0 12 -42 c78 -283 63 -273 119 -83 l35 120 68 3 c59 3
67 1 67 -15 0 -10 -26 -108 -58 -218 l-58 -200 -81 -3 c-97 -3 -88 -13 -128
141 -15 59 -32 107 -37 107 -4 0 -8 -5 -8 -11 0 -7 -14 -63 -31 -125 l-31
-114 -84 0 -83 0 -20 68 c-57 194 -101 352 -101 361 0 7 25 11 65 11 58 0 66
-2 75 -22z m1072 -6 c38 -23 68 -80 68 -128 0 -34 -28 -93 -52 -107 -26 -17
-23 -31 22 -97 22 -32 40 -64 40 -69 0 -7 -26 -11 -64 -11 l-63 0 -47 71 c-47
70 -47 70 -89 67 l-42 -3 -3 -67 -3 -68 -64 0 -65 0 0 221 0 221 163 -4 c147
-3 166 -6 199 -26z"/>
<path d="M1907 463 c-4 -3 -7 -21 -7 -40 l0 -33 79 0 c91 0 112 13 93 55 -11
23 -17 25 -85 25 -41 0 -77 -3 -80 -7z"/>
</g>
</svg>
